name processed_emg_signals
nRows=33
nColumns=7
 
endheader
time	LGLTMED	LRF	LADDLONG	LST	LTA	LGM
2.032	0.4617595328258823	0.5522732925935899	0.4680178172648129	0.1522802701976967	0.3476317871474236	0.5353266766638136
2.033	0.4650109089079812	0.5521574280753607	0.4681433257479563	0.1524705937861548	0.3476120811498608	0.536294171205265
2.0340000000000003	0.4682622350591685	0.5520433109596222	0.4682281433600553	0.1526427410778389	0.3475932884461322	0.5372024422184705
2.035	0.4715091321866838	0.5519301940463882	0.4682722356161919	0.1527965842917383	0.3475756162206586	0.5380494715673898
2.036	0.4747472587236153	0.5518173309878706	0.4682756161609168	0.1529320157314365	0.3475592830551166	0.5388333222735835
2.037	0.4779723158891977	0.5517039754865775	0.4682383437807998	0.1530489477227808	0.3475445175247686	0.5395521416200239
2.0380000000000003	0.4811800528926097	0.5515893805891927	0.4681605194074438	0.1531473125415955	0.347531556801915	0.5402041641946129
2.039	0.4843662720721373	0.5514727980837205	0.468042283126449	0.1532270623319831	0.3475206452686441	0.5407877148646962
2.04	0.4875268339612665	0.5513534780065695	0.4678838112079658	0.1532881690156832	0.3475120331406023	0.5413012116724947
2.041	0.4906576622726723	0.551230668265018	0.4676853131737097	0.1533306241930279	0.347505975103104	0.5417431686398975
2.0420000000000003	0.4937547487906788	0.5511036143794892	0.4674470289152329	0.1533544390361394	0.3475027289604502	0.5421121984699127
2.043	0.4968141581625244	0.5509715593488677	0.4671692258773616	0.1533596441750229	0.3475025542988545	0.5424070151308851
2.044	0.4998320325790655	0.5508337436407797	0.4668521963203635	0.1533462895772878	0.3475057111630348	0.5426264363087139
2.045	0.5028045963363202	0.5506894053075523	0.4664962546744313	0.1533144444220461	0.3475124587461133	0.5427693857121383
2.0460000000000003	0.5057281602697407	0.5505377802274438	0.4661017349994195	0.1532641969684818	0.347523054092244	0.5428348952163855
2.047	0.5085991260537085	0.5503781024694369	0.4656689885626831	0.1531956544194557	0.3475377508108164	0.5428221068314831
2.048	0.5114139903586813	0.5502096047788084	0.4651983815467982	0.1531089427804935	0.3475567978005764	0.5427302744829493
2.049	0.5141693488577934	0.550031519179429	0.4646902928977109	0.1530042067143829	0.3475804379812399	0.5425587655946055
2.05	0.5168619000740943	0.5498430776877664	0.4641451123225503	0.1528816093913346	0.3476089070294184	0.5423070624653055
2.051	0.5194884490584317	0.5496435131323383	0.4635632384446348	0.1527413323346484	0.3476424321151181	0.5419747634335382
2.052	0.5220459108875692	0.5494320600712365	0.4629450771219898	0.1525835752614636	0.3476812306348972	0.5415615838259786
2.053	0.5245313139713323	0.5492079557991918	0.4622910399340409	0.1524085559180485	0.3477255089382006	0.5410673566878813
2.054	0.5269418031571113	0.5489704414343284	0.4616015428398422	0.152216509908867	0.3477754610445853	0.5404920332949174
2.055	0.5292746426189312	0.5487187630740132	0.460877005009714	0.1520076905184759	0.3478312673511541	0.5398356834472547
2.056	0.531527218517316	0.5484521730082701	0.4601178478306581	0.151782368525154	0.3478930933314053	0.5390984955472117
2.057	0.5336970414158552	0.5481699309788369	0.4593244940845058	0.1515408320050124	0.3479610882286792	0.5382807764622135
2.058	0.5357817484411044	0.547871305471419	0.458497367296571	0.1512833861252333	0.3480353837491671	0.5373829511754045
2.059	0.5377791051739331	0.5475555750287473	0.4576368912515217	0.1510103529247505	0.3481160927607145	0.536405562227201
2.06	0.5396870072628225	0.5472220295724032	0.4567434896722948	0.1507220710805106	0.3482033080043965	0.5353492689516682
2.061	0.5415034817521734	0.5468699717221234	0.4558175860568114	0.1504188956570308	0.3482971008262062	0.5342148465119987
2.062	0.5432266881218467	0.546498718102106	0.4548596036664137	0.1501011978367279	0.3483975199365267	0.5330031847394642
2.063	0.5448549190368306	0.5461076006248078	0.4538699656591781	0.1497693646281315	0.3485045902054197	0.5317152867807122
2.064	0.5463866008084525	0.5456959677439178	0.4528490953608954	0.1494237985488256	0.3486183115021176	0.5303522675586118
